<svg width="22" height="15" viewBox="0 0 22 15" fill="none" xmlns="http://www.w3.org/2000/svg">
<path d="M0 1.62849L0.17736 1.09847L6.82438 7.48323L0.172202 13.868C0.126856 13.7384 0.0637149 13.5554 0 13.3725V1.62849ZM1.29725 0.345422L10.3821 9.17675C10.8 9.58275 11.2064 9.58053 11.6277 9.17119C14.6508 6.23242 17.6739 3.2942 20.697 0.356546C20.7504 0.305379 20.8376 0.287583 20.9094 0.254213C20.887 0.208608 20.864 0.163559 20.8417 0.118509C20.542 0.0806901 20.2424 0.00727647 19.9428 0.00727647C13.9777 0.000602499 8.01257 -0.000881555 2.04748 0.0028262C1.96902 -0.00230611 1.89024 -0.00044577 1.81213 0.00838649C1.59057 0.0489865 1.3713 0.0984871 1.11012 0.152991C1.20139 0.245871 1.24789 0.297037 1.29725 0.343198V0.345422ZM2.07503 14.997C8.02482 14.997 13.9742 14.997 19.9232 14.997C20.0163 15.0027 20.1096 15.0003 20.2022 14.9898C20.4192 14.9503 20.6339 14.898 20.8996 14.8402C18.6426 12.6745 16.4373 10.5577 14.2205 8.42927C14.1929 8.45485 14.1361 8.50546 14.0816 8.5583C13.5558 9.06886 13.0369 9.58665 12.5013 10.0877C12.3197 10.2641 12.1117 10.4127 11.8843 10.5288C11.0938 10.9109 10.1818 10.7451 9.53427 10.1245C8.9396 9.55439 8.34837 8.98098 7.79216 8.44428L1.14744 14.8185C1.4488 14.967 1.75761 14.9976 2.07503 14.997ZM21.9931 13.1617C22.0023 9.38754 22.0023 5.61378 21.9931 1.84039C21.9931 1.58789 21.8973 1.33484 21.8508 1.10904L15.1785 7.51771L21.8519 13.9225C21.9018 13.6605 21.9948 13.4131 21.996 13.1628L21.9931 13.1617Z" fill="white"/>
</svg>
