<svg width="30" height="26" viewBox="0 0 30 26" fill="none" xmlns="http://www.w3.org/2000/svg">
<path d="M29.9968 23.799C29.8397 23.9157 29.8611 24.1083 29.797 24.264C29.3813 25.2783 28.3908 25.9926 27.2923 25.9937C21.9746 26.0021 16.6559 26.0021 11.336 25.9937C11.2593 25.9837 11.1833 25.9689 11.1084 25.9495C12.4559 24.7795 12.3447 23.2582 12.3244 21.7558C12.3127 20.8951 12.3244 20.8951 13.1899 20.8951H29.252C29.5149 20.8951 29.7863 20.8572 30 21.0708L29.9968 23.799Z" fill="white"/>
<path d="M2.88078 0C4.48357 0.620752 4.87573 1.21204 4.8768 2.99223C4.8768 5.3069 4.87038 7.62788 4.88534 9.9457C4.88534 10.2992 4.80627 10.4286 4.42053 10.4213C3.09342 10.3981 1.76596 10.3981 0.438133 10.4213C0.0812451 10.4276 -0.00209734 10.3245 3.9711e-05 9.98569C0.0139306 7.46059 -0.00637197 4.9355 0.0128615 2.41041C0.0224783 1.14786 0.7822 0.418743 1.92232 0.00525932L2.88078 0Z" fill="white"/>
<path d="M24.4223 3.1269C24.4223 1.32883 23.8752 0.588136 22.1228 0H4.88534C5.78931 1.03739 5.80962 2.26206 5.80534 3.5225C5.7829 10.0972 5.79145 16.674 5.7968 23.2487C5.7968 25.3351 7.95095 26.6281 9.8572 25.6854C10.8328 25.2036 11.3328 24.4134 11.3531 23.3823C11.3756 22.5333 11.3863 21.6832 11.3531 20.8352C11.3307 20.3438 11.5166 20.2039 12.0242 20.2039C15.9585 20.2197 19.8928 20.2039 23.8282 20.2228C24.3112 20.2228 24.4362 20.1176 24.4351 19.6526C24.4159 14.1479 24.4234 8.63686 24.4223 3.1269ZM15.3302 3.33733H21.5276C21.641 3.33733 21.7497 3.38166 21.8299 3.46059C21.91 3.53951 21.9551 3.64656 21.9551 3.75817C21.9551 3.86979 21.91 3.97684 21.8299 4.05577C21.7497 4.13469 21.641 4.17902 21.5276 4.17902H15.3302C15.2168 4.17902 15.1081 4.13469 15.028 4.05577C14.9478 3.97684 14.9028 3.86979 14.9028 3.75817C14.9036 3.64711 14.949 3.54087 15.0291 3.46263C15.1092 3.38439 15.2174 3.34048 15.3302 3.34048V3.33733ZM14.9028 5.80245C14.9028 5.69083 14.9478 5.58378 15.028 5.50486C15.1081 5.42593 15.2168 5.3816 15.3302 5.3816H18.7495C18.8628 5.3816 18.9716 5.42593 19.0517 5.50486C19.1319 5.58378 19.1769 5.69083 19.1769 5.80245C19.1769 5.91407 19.1319 6.0211 19.0517 6.10003C18.9716 6.17895 18.8628 6.2233 18.7495 6.2233H15.3302C15.2168 6.2233 15.1081 6.17895 15.028 6.10003C14.9478 6.0211 14.9028 5.91407 14.9028 5.80245ZM10.5421 5.42578C10.4909 5.33564 10.4174 5.25966 10.3284 5.20484C10.2039 5.12649 10.0709 5.06192 9.93199 5.01231C9.64944 4.90949 9.37663 4.7824 9.1167 4.63249C8.92349 4.51591 8.76008 4.35715 8.63908 4.1685C8.51362 3.95543 8.45177 3.71182 8.46063 3.46569C8.45642 3.2346 8.5147 3.00657 8.62946 2.80495C8.74273 2.61138 8.90653 2.45119 9.10388 2.34097C9.3223 2.21888 9.56519 2.14527 9.81553 2.12529V1.41826H10.3498V2.13475C10.5939 2.16639 10.827 2.25396 11.0304 2.39042C11.2239 2.52356 11.3777 2.70517 11.476 2.91648C11.5849 3.15509 11.6386 3.41456 11.6331 3.67611H10.6191C10.6339 3.47383 10.5781 3.27266 10.4609 3.10586C10.4097 3.04332 10.3445 2.99336 10.2703 2.95994C10.1961 2.92652 10.115 2.91056 10.0335 2.91332C9.95713 2.90774 9.88043 2.91869 9.80881 2.94541C9.73718 2.97213 9.67237 3.01397 9.61892 3.06798C9.52345 3.18063 9.47427 3.32439 9.48108 3.47095C9.47855 3.56757 9.50019 3.66332 9.54412 3.74976C9.59518 3.83483 9.66583 3.9069 9.75035 3.96019C9.87845 4.04209 10.0153 4.10982 10.1585 4.16218C10.4381 4.26931 10.708 4.39954 10.9653 4.55148C11.1622 4.67072 11.3288 4.83265 11.4525 5.02493C11.5778 5.23692 11.6397 5.47947 11.631 5.72459C11.6365 5.95844 11.5794 6.18961 11.4653 6.3948C11.3545 6.58586 11.1926 6.7434 10.9973 6.85036C10.7778 6.96826 10.5359 7.03992 10.2867 7.06078V7.72047H9.75249V7.06078C9.49573 7.03525 9.24643 6.96093 9.01841 6.84195C8.79485 6.72222 8.60978 6.54327 8.48415 6.32535C8.34106 6.06478 8.27133 5.77127 8.28219 5.47524H9.29943C9.29943 5.75581 9.36674 5.95956 9.50137 6.08652C9.64005 6.21335 9.82403 6.28106 10.0132 6.27485C10.0945 6.28033 10.1761 6.26974 10.2531 6.24372C10.3302 6.2177 10.4012 6.17677 10.462 6.12334C10.5139 6.07113 10.5545 6.00901 10.5811 5.9408C10.6078 5.87258 10.62 5.79973 10.6169 5.7267C10.6158 5.62375 10.5902 5.52249 10.5421 5.43105V5.42578ZM9.09106 18.0975H8.23624C8.12288 18.0975 8.01418 18.0532 7.93402 17.9743C7.85387 17.8953 7.80883 17.7883 7.80883 17.6767C7.80883 17.5651 7.85387 17.458 7.93402 17.3791C8.01418 17.3002 8.12288 17.2558 8.23624 17.2558H9.09106C9.20442 17.2558 9.31314 17.3002 9.39329 17.3791C9.47345 17.458 9.51847 17.5651 9.51847 17.6767C9.5189 17.7322 9.50816 17.7873 9.48687 17.8387C9.46558 17.8901 9.43416 17.9369 9.39443 17.9763C9.3547 18.0157 9.30744 18.047 9.25537 18.0684C9.2033 18.0897 9.14746 18.1007 9.09106 18.1007V18.0975ZM15.3452 18.0975H10.338C10.2247 18.0975 10.116 18.0532 10.0358 17.9743C9.95565 17.8953 9.91063 17.7883 9.91063 17.6767C9.91063 17.5651 9.95565 17.458 10.0358 17.3791C10.116 17.3002 10.2247 17.2558 10.338 17.2558H15.3452C15.4585 17.2558 15.5672 17.3002 15.6474 17.3791C15.7275 17.458 15.7726 17.5651 15.7726 17.6767C15.773 17.7322 15.7622 17.7873 15.7409 17.8387C15.7197 17.8901 15.6882 17.9369 15.6485 17.9763C15.6088 18.0157 15.5615 18.047 15.5095 18.0684C15.4574 18.0897 15.4016 18.1007 15.3452 18.1007V18.0975ZM22.4199 15.0958C22.4199 15.2074 22.3748 15.3145 22.2947 15.3934C22.2145 15.4723 22.1058 15.5167 21.9925 15.5167H8.23624C8.12288 15.5167 8.01418 15.4723 7.93402 15.3934C7.85387 15.3145 7.80883 15.2074 7.80883 15.0958C7.80883 14.9842 7.85387 14.8772 7.93402 14.7983C8.01418 14.7193 8.12288 14.675 8.23624 14.675H21.9957C22.109 14.675 22.2177 14.7193 22.2979 14.7983C22.378 14.8772 22.4231 14.9842 22.4231 15.0958H22.4199ZM7.80883 12.5139C7.80883 12.4023 7.85387 12.2953 7.93402 12.2163C8.01418 12.1374 8.12288 12.0931 8.23624 12.0931H9.09106C9.20442 12.0931 9.31314 12.1374 9.39329 12.2163C9.47345 12.2953 9.51847 12.4023 9.51847 12.5139C9.51847 12.6255 9.47345 12.7326 9.39329 12.8115C9.31314 12.8904 9.20442 12.9348 9.09106 12.9348H8.23624C8.12344 12.9348 8.01521 12.8909 7.93514 12.8126C7.85508 12.7344 7.80967 12.6281 7.80883 12.5171V12.5139ZM9.91063 12.5139C9.91063 12.4023 9.95565 12.2953 10.0358 12.2163C10.116 12.1374 10.2247 12.0931 10.338 12.0931H15.3452C15.4585 12.0931 15.5672 12.1374 15.6474 12.2163C15.7275 12.2953 15.7726 12.4023 15.7726 12.5139C15.7726 12.6255 15.7275 12.7326 15.6474 12.8115C15.5672 12.8904 15.4585 12.9348 15.3452 12.9348H10.338C10.2252 12.9348 10.117 12.8909 10.0369 12.8126C9.95688 12.7344 9.91147 12.6281 9.91063 12.5171V12.5139ZM21.9925 10.3529H8.23624C8.12288 10.3529 8.01418 10.3085 7.93402 10.2296C7.85387 10.1507 7.80883 10.0436 7.80883 9.93203C7.80883 9.82041 7.85387 9.71336 7.93402 9.63443C8.01418 9.55551 8.12288 9.51118 8.23624 9.51118H21.9957C22.109 9.51118 22.2177 9.55551 22.2979 9.63443C22.378 9.71336 22.4231 9.82041 22.4231 9.93203C22.4235 9.98756 22.4128 10.0426 22.3915 10.094C22.3702 10.1455 22.3388 10.1922 22.299 10.2316C22.2593 10.2711 22.212 10.3023 22.16 10.3237C22.1079 10.345 22.0521 10.356 21.9957 10.356L21.9925 10.3529Z" fill="white"/>
</svg>
