<svg width="28" height="27" viewBox="0 0 28 27" fill="none" xmlns="http://www.w3.org/2000/svg">
<path d="M9.7998 27C9.59058 26.9644 9.38373 26.9157 9.18043 26.8541C7.70881 26.3055 6.34121 25.5025 5.13779 24.4805C4.51453 23.9548 4.36728 23.1855 4.69372 22.3576C5.27257 20.8889 5.05521 19.544 4.02527 18.3584C3.4715 17.7212 2.70717 17.3131 1.87735 17.2117C0.812352 17.061 0.319197 16.5852 0.152474 15.4916C-0.0837533 13.9434 -0.0452288 12.3646 0.266219 10.8302C0.429825 10.0102 0.996216 9.5074 1.83996 9.39321C4.2551 9.06727 5.66134 6.72229 4.84174 4.39713C4.52544 3.49863 4.73501 2.77777 5.47591 2.19489C6.56872 1.33507 7.78095 0.645275 9.07292 0.148091C9.87848 -0.162776 10.5851 0.0164493 11.146 0.67942C12.7354 2.55652 15.2752 2.55969 16.8582 0.687349C17.4316 0.00931008 18.1258 -0.162773 18.954 0.156024C20.3643 0.70031 21.678 1.47524 22.8431 2.45025C23.5183 3.01224 23.716 3.70932 23.436 4.54147C22.6671 6.82618 23.951 9.07599 26.2773 9.51612C27.1413 9.68028 27.6259 10.1815 27.7872 11.0538C28.0786 12.6534 28.0707 14.2947 27.7638 15.8913C27.6196 16.6669 27.0447 17.2196 26.2609 17.3401C23.8575 17.7105 22.4988 20.0737 23.3526 22.3973C23.6588 23.2307 23.4687 23.9564 22.794 24.5202C21.7109 25.4235 20.5011 26.1567 19.2048 26.6955C18.4203 27.023 17.6552 26.816 17.1177 26.1404C15.5089 24.107 12.7767 24.1419 11.2208 26.2197C11.0579 26.4512 10.8452 26.6418 10.5989 26.777C10.3527 26.9123 10.0794 26.9885 9.7998 27ZM18.6743 13.4606C18.6743 10.8714 16.577 8.73261 14.0341 8.73103C11.4413 8.73103 9.34014 10.8508 9.3417 13.4686C9.34098 14.0932 9.46125 14.7119 9.69561 15.2892C9.92998 15.8665 10.2739 16.3911 10.7076 16.833C11.1413 17.275 11.6563 17.6255 12.2232 17.8647C12.7902 18.1038 13.3978 18.2268 14.0115 18.2267C15.2506 18.2236 16.4377 17.7198 17.312 16.8261C18.1864 15.9324 18.6763 14.7219 18.6743 13.4606Z" fill="white"/>
</svg>
