<svg width="30" height="30" viewBox="0 0 30 30" fill="none" xmlns="http://www.w3.org/2000/svg">
<path d="M24.4223 16.7466C25.0778 16.9834 25.7245 17.1546 26.3153 17.4394C28.9371 18.707 30.3852 21.5734 29.9107 24.5036C29.4597 27.2852 27.1709 29.5287 24.348 29.9201C23.7476 30.0022 23.1324 29.9961 22.5233 29.9961C15.8935 30.0013 9.2635 30.0013 2.63319 29.9961C1.39393 29.9961 0.478045 29.3968 0.134585 28.3309C0.0456071 28.04 0.00198305 27.7371 0.00524366 27.4329C-0.00174789 19.1462 -0.00174789 10.8601 0.00524366 2.57459C0.00524366 1.03176 1.02687 0.00349452 2.56239 0.00262089C8.99636 -0.00087363 15.43 -0.00087363 21.8634 0.00262089C23.3972 0.00262089 24.425 1.04225 24.4258 2.57459C24.4258 7.18619 24.4258 11.7981 24.4258 16.4103L24.4223 16.7466ZM27.9041 23.3556C27.8945 20.8273 25.8818 18.8468 23.3299 18.8547C20.8278 18.8617 18.8457 20.8981 18.8571 23.4491C18.8676 25.9084 20.9143 27.8994 23.4208 27.8898C24.6165 27.8819 25.7602 27.4 26.6008 26.5499C27.4414 25.6998 27.9102 24.5509 27.9041 23.3556ZM12.2029 13.2477H12.5953C14.5459 13.2477 16.4974 13.2477 18.4507 13.2477C19.0834 13.2477 19.5248 12.8109 19.5309 12.2221C19.537 11.6333 19.1018 11.1921 18.4821 11.1589C18.4061 11.1545 18.3292 11.1589 18.2532 11.1589C14.233 11.1589 10.2103 11.1589 6.18489 11.1589C6.01088 11.1539 5.83689 11.1697 5.66664 11.2061C5.48944 11.2449 5.32664 11.3324 5.19661 11.4589C5.06657 11.5853 4.9745 11.7456 4.93079 11.9216C4.72978 12.6161 5.22879 13.246 5.99349 13.2477C8.05862 13.2521 10.1299 13.2477 12.2029 13.2477ZM12.2195 5.57725C10.1366 5.57725 8.05425 5.57725 5.97252 5.57725C5.33804 5.57725 4.8696 6.04203 4.87834 6.63435C4.88708 7.21269 5.35202 7.66698 5.96553 7.66698C10.1307 7.67048 14.2965 7.66814 18.4629 7.65999C18.6894 7.65097 18.9092 7.58094 19.0991 7.4573C19.283 7.33546 19.4211 7.15588 19.4915 6.9469C19.5619 6.73792 19.5607 6.51145 19.488 6.30324C19.3421 5.85769 18.9462 5.57725 18.4393 5.57725C16.3634 5.57492 14.2898 5.57492 12.2186 5.57725H12.2195ZM10.455 16.7484C8.96228 16.7484 7.46959 16.744 5.97602 16.7484C5.34765 16.7484 4.89669 17.1808 4.88009 17.7644C4.87816 17.9068 4.90502 18.0481 4.95907 18.1798C5.01311 18.3115 5.09322 18.431 5.19459 18.531C5.29596 18.6311 5.4165 18.7096 5.54898 18.7619C5.68146 18.8142 5.82314 18.8392 5.96553 18.8354C8.96141 18.8442 11.9582 18.8477 14.9549 18.8241C15.2285 18.8241 15.5483 18.6634 15.7616 18.479C16.0814 18.2021 16.1391 17.795 15.9678 17.3975C15.793 16.9816 15.4644 16.7484 14.9986 16.7484C13.4844 16.7478 11.9698 16.7478 10.455 16.7484ZM9.76893 22.3256C8.51657 22.3256 7.26421 22.3256 6.01098 22.3256C5.34853 22.3256 4.87485 22.772 4.87485 23.374C4.87485 23.9759 5.35552 24.4136 6.01884 24.4145C8.51307 24.4145 11.0073 24.4145 13.5015 24.4145C14.1675 24.4145 14.6377 23.9776 14.6499 23.3783C14.6621 22.779 14.1727 22.3239 13.4884 22.3221C12.2492 22.3227 11.0085 22.3238 9.76631 22.3256H9.76893ZM22.0286 22.6419C21.582 22.2147 20.9484 22.2181 20.5359 22.6419C20.4389 22.7383 20.3622 22.8531 20.3101 22.9795C20.258 23.1059 20.2316 23.2414 20.2325 23.3782C20.2334 23.5149 20.2616 23.6501 20.3153 23.7758C20.369 23.9015 20.4473 24.0153 20.5455 24.1104C20.9988 24.581 21.4608 25.0438 21.9316 25.4986C22.3686 25.9197 22.9707 25.9416 23.4016 25.5222C24.3524 24.5935 25.2884 23.6483 26.2227 22.703C26.3452 22.5844 26.4345 22.4357 26.4814 22.2718C26.5283 22.1079 26.5313 21.9345 26.4901 21.7691C26.4574 21.585 26.373 21.4139 26.2468 21.2759C26.1205 21.1379 25.9575 21.0387 25.7769 20.9898C25.5946 20.9281 25.3984 20.92 25.2115 20.9665C25.0247 21.0129 24.8551 21.112 24.723 21.2519C24.0535 21.922 23.3876 22.5964 22.6675 23.3224C22.428 23.0673 22.2375 22.8445 22.026 22.641L22.0286 22.6419Z" fill="black"/>
</svg>
